<svg width="201" height="201" xmlns="http://www.w3.org/2000/svg" preserveAspectRatio="xMidYMid meet" version="1.0">

 <g>
  <title>Layer 1</title>
  <g id="svg_1" fill="#000000" transform="translate(0 201) scale(0.1 -0.1)">
   <path fill="#ffffff" id="svg_2" d="m881,1799c-36,-4 -76,-12 -90,-18c-15,-5 -35,-12 -46,-17c-11,-4 -26,-8 -34,-10c-7,-1 -18,-7 -24,-13c-6,-6 -19,-11 -29,-11c-10,0 -21,-7 -24,-15c-4,-8 -9,-13 -13,-11c-9,6 -84,-44 -148,-100c-103,-88 -206,-277 -233,-428c-12,-63 -10,-225 4,-311c6,-38 45,-145 60,-164c26,-33 90,-51 181,-51c373,0 1008,345 1163,631c48,91 42,132 -36,228c-106,130 -270,238 -412,271c-30,7 -68,16 -85,20c-42,10 -158,10 -234,-1z"/>
   <path fill="#ffffff" id="svg_3" d="m1812,1374c-44,-213 -435,-535 -877,-723c-214,-91 -387,-134 -545,-135c-114,-1 -120,0 -203,42c-5,2 3,-19 17,-47c39,-77 80,-94 231,-99c118,-4 121,-5 210,-48c122,-60 223,-84 350,-84c209,0 389,74 536,220c48,47 102,113 123,150c58,99 98,229 103,335c4,78 9,95 33,130c78,114 95,191 58,269l-23,49l-13,-59z"/>
  </g>
 </g>
</svg>